<?xml version="1.0" encoding="UTF-8"?>
<!-- Generated by Pixelmator Pro 3.3.11 -->
<svg width="640" height="640" viewBox="0 0 640 640" xmlns="http://www.w3.org/2000/svg">
    <path id="Path" fill="#f3b800" fill-rule="evenodd" stroke="#081b64" d="M 240 580 C 240 602.09137 257.9086 620 280 620 L 356 620 C 378.0914 620 396 602.09137 396 580 C 396 557.90863 378.0914 540 356 540 L 280 540 C 257.9086 540 240 557.90863 240 580 Z"/>
    <path id="path1" fill="#f3b800" fill-rule="evenodd" stroke="none" d="M 240 580 L 395 580 L 395 280 L 240 280 Z"/>
    <path id="path2" fill="#f3b800" fill-rule="evenodd" stroke="none" d="M 316.5 204.5 L 240.5 280.5 L 392.5 280.5 Z"/>
    <path id="path3" fill="#f3b800" fill-rule="evenodd" stroke="none" d="M 280 280 L 350 280 L 350 115 L 280 115 Z"/>
    <path id="path4" fill="#f3b800" fill-rule="evenodd" stroke="none" d="M 281.5914 217.121002 L 394.811798 279.880005 L 344.350494 103.900513 Z"/>
    <path id="path5" fill="#f3b800" fill-rule="evenodd" stroke="none" d="M 354.869415 211.23468 L 282.843994 95.969971 L 239.604797 283.26001 Z"/>
    <path id="path6" fill="#002c8c" fill-rule="evenodd" stroke="none" d="M 280 50 L 345 50 L 345 25 C 345 19.477173 340.522797 15 335 15 L 290 15 C 284.477112 15 280 19.477173 280 25 Z"/>
    <path id="path7" fill="#e9d6bd" fill-rule="evenodd" stroke="#e9ad24" stroke-width="10" d="M 252 520 C 252 542.09137 269.9086 560 292 560 L 346 560 C 368.0914 560 386 542.09137 386 520 L 386 383 C 386 360.9086 368.0914 343 346 343 L 292 343 C 269.9086 343 252 360.9086 252 383 Z"/>
    <path id="path8" fill="#e9d6bd" fill-rule="evenodd" stroke="#e9ad24" stroke-width="6" d="M 260 205 L 310 220 L 330 220 L 370 199 L 360 164 L 345 164 C 345 164 334.677704 150.501587 317 150 C 299.322296 149.498413 282 170 282 170 L 270 170 L 260 205 Z"/>
    <path id="path9" fill="#d5d5d5" fill-rule="evenodd" stroke="#081b64" stroke-width="3" d="M 350 389.5 C 350 371.550812 335.449219 357 317.5 357 C 299.550781 357 285 371.550812 285 389.5 C 285 407.449188 299.550781 422 317.5 422 C 335.449219 422 350 407.449188 350 389.5 Z"/>
    <path id="path10" fill="#d5d5d5" fill-rule="evenodd" stroke="#081b64" d="M 334 181.5 C 334 171.835022 326.164978 164 316.5 164 C 306.835022 164 299 171.835022 299 181.5 C 299 191.164978 306.835022 199 316.5 199 C 326.164978 199 334 191.164978 334 181.5 Z"/>
    <path id="path11" fill="#d5d5d5" fill-rule="evenodd" stroke="none" d="M 285 60 L 282 50 L 345 50 L 340 55 L 340 80 L 350 120 L 277 120 L 285 80 L 285 60 Z"/>
</svg>
